<?xml version="1.0" encoding="UTF-8" standalone="no"?>
<svg
   viewBox="0 0 51.838959 63.537849"
   version="1.1"
   id="svg384"
   xml:space="preserve"
   sodipodi:docname="hcc.svg"
   inkscape:export-filename="hcc.svg"
   inkscape:export-xdpi="96"
   inkscape:export-ydpi="96"
   inkscape:version="1.2.2 (b0a84865, 2022-12-01)"
   xmlns:inkscape="http://www.inkscape.org/namespaces/inkscape"
   xmlns:sodipodi="http://sodipodi.sourceforge.net/DTD/sodipodi-0.dtd"
   xmlns="http://www.w3.org/2000/svg"
   xmlns:svg="http://www.w3.org/2000/svg"><defs
   id="defs187" /><sodipodi:namedview
   id="namedview185"
   pagecolor="#ffffff"
   bordercolor="#000000"
   borderopacity="0.25"
   inkscape:showpageshadow="2"
   inkscape:pageopacity="0.0"
   inkscape:pagecheckerboard="0"
   inkscape:deskcolor="#d1d1d1"
   showgrid="false"
   inkscape:zoom="8.4673939"
   inkscape:cx="25.15532"
   inkscape:cy="31.768925"
   inkscape:window-width="1309"
   inkscape:window-height="758"
   inkscape:window-x="0"
   inkscape:window-y="25"
   inkscape:window-maximized="0"
   inkscape:current-layer="layer1" /> <g
   id="layer1"
   transform="translate(-5.1520926,-5.92985)">
     <path
   style="fill:#99b865;stroke-width:0.0846667;fill-opacity:1"
   d="m 29.98767,66.20346 c -0.61468,-0.14902 -1.34936,-0.51911 -1.90958,-0.96194 -0.24069,-0.19025 -0.47603,-0.34591 -0.52299,-0.34591 -0.0469,0 -0.38145,0.0997 -0.74332,0.22154 -1.79131,0.60317 -4.00704,-0.032 -5.51298,-1.58029 -0.54446,-0.55979 -0.59149,-0.58858 -0.9613,-0.58858 -0.81377,0 -2.60169,-0.76098 -3.73431,-1.58941 -3.41732,-2.49951 -5.63057,-6.49097 -6.16079,-11.11059 -0.13677,-1.19165 -0.0566,-3.40767 0.1669,-4.61434 0.50315,-2.7162 1.4402,-4.73439 3.33997,-7.1935 L 14.66632,37.51226 13.59441,36.9083 C 11.46305,35.70741 10.3923,34.93115 9.14814,33.6849 7.33094,31.86464 6.21193,29.85187 5.22841,26.63445 c -0.10772,-0.35237 -0.10585,-0.3659 0.0341,-0.24647 1.75151,1.49519 3.1928,2.38232 5.12408,3.15393 1.81352,0.72457 3.85372,1.26314 5.60728,1.48022 1.06481,0.13182 2.6961,0.2028 3.19008,0.13881 l 0.45059,-0.0584 0.96537,-1.98056 0.96538,-1.98057 0.55425,-0.0247 c 0.52335,-0.0234 0.56304,-0.0398 0.71201,-0.2955 l 0.15776,-0.27076 -0.29269,-0.43462 -0.2927,-0.43462 0.72282,-1.15729 c 0.39755,-0.63651 0.86533,-1.38876 1.03951,-1.67166 l 0.31668,-0.51437 -0.66736,-0.92175 c -0.36705,-0.50696 -0.66737,-0.9435 -0.66737,-0.9701 0,-0.0266 0.1521,-0.90435 0.33799,-1.95055 0.18589,-1.04621 0.33654,-1.97839 0.33478,-2.07152 -0.002,-0.0931 -0.18478,-0.44663 -0.4067,-0.78555 l -0.40349,-0.61621 -0.45686,0.67671 -0.45687,0.6767 -1.21025,-0.63689 c -0.66565,-0.35029 -1.23967,-0.61871 -1.2756,-0.5965 -0.0359,0.0222 -0.4418,0.59591 -0.90191,1.27489 -0.46011,0.67898 -0.87933,1.23451 -0.93159,1.23451 -0.0523,0 -0.89147,-0.26616 -1.86491,-0.59146 -0.97343,-0.32531 -1.77892,-0.58242 -1.78998,-0.57136 -0.0111,0.011 -0.0629,0.34389 -0.11525,0.73963 -0.17471,1.32123 -0.11835,1.21086 -0.78237,1.53205 l -0.59571,0.28814 0.0549,0.80434 0.0549,0.80433 0.39965,0.35935 c 0.69578,0.62561 0.95346,0.76397 1.62967,0.87501 l 0.63735,0.10467 0.51417,-0.37044 0.51417,-0.37045 -0.004,-0.69412 -0.004,-0.69413 -0.25395,-0.0373 c -0.15412,-0.0226 -0.43034,0.0407 -0.70264,0.16116 -0.24677,0.10913 -0.44868,0.18177 -0.44868,0.16141 0,-0.0619 0.48123,-0.74698 0.73828,-1.05104 l 0.24167,-0.28585 0.60527,0.19494 0.60527,0.19494 0.47109,1.04223 c 0.2591,0.57322 0.47109,1.0856 0.47109,1.13861 0,0.053 -0.31433,0.44435 -0.6985,0.86964 -0.38418,0.42528 -0.8509,0.96809 -1.03717,1.20623 l -0.33867,0.43298 -1.778,0.0396 -1.778,0.0396 -0.71966,-0.59955 C 10.81156,22.54825 8.67001,20.60927 8.67561,20.5426 c 0.002,-0.03 0.16734,-0.79758 0.36624,-1.70563 l 0.36164,-1.651 0.76262,-0.32589 0.76262,-0.32588 0.15408,-0.60545 c 0.21907,-0.8608 1.13902,-4.14214 1.16995,-4.17307 0.0142,-0.0142 0.69051,0.20015 1.50288,0.47637 l 1.47705,0.50221 0.0852,0.34858 0.0852,0.34859 0.59435,-0.6204 c 0.32689,-0.34122 0.70103,-0.75057 0.83141,-0.90968 l 0.23707,-0.28927 0.4147,0.13261 0.4147,0.13262 0.37403,-0.69001 c 0.20571,-0.3795 0.62532,-1.1933 0.93246,-1.80845 l 0.55844,-1.11845 0.55336,0.20828 c 0.30434,0.11456 0.60979,0.20829 0.67876,0.20829 0.069,0 1.36403,-0.6181 2.87792,-1.37356 l 2.7525,-1.37356 1.23427,1.22539 c 2.86253,2.84195 4.59604,4.7987 6.3708,7.19119 1.35554,1.82735 2.67186,3.89787 2.47806,3.89787 -0.0339,0 -0.19291,-0.13736 -0.35339,-0.30525 -0.33712,-0.35268 -2.66889,-2.03282 -3.37178,-2.42951 -0.62725,-0.35399 -0.26504,-0.4212 0.52837,-0.098 0.23416,0.0954 -1.44268,-1.87186 -2.19213,-2.57177 -0.62474,-0.58343 -0.63819,-0.604 -0.36543,-0.55847 l 0.2832,0.0473 -0.46567,-0.43446 C 30.47132,11.61632 30.00722,11.31673 29.48185,11.06319 28.74149,10.70589 28.65171,10.6374 28.57362,10.37036 28.40059,9.77864 27.32431,8.35934 26.87078,8.12481 26.70403,8.03861 26.56988,8.0237 26.43468,8.07641 26.06896,8.2191 25.25962,9.22637 24.72758,10.201 c -0.30774,0.56373 -0.76547,1.69333 -0.68617,1.69333 0.0243,0 0.16347,-0.13585 0.30925,-0.30188 0.55643,-0.63374 1.66025,-1.33852 2.50344,-1.59842 0.17985,-0.0554 0.17348,-0.0285 -0.10599,0.44834 -0.28368,0.48403 -0.63559,1.23302 -0.63577,1.35315 -4e-5,0.0311 0.38704,0.0432 0.86019,0.0269 0.47314,-0.0162 1.09231,0.015 1.37591,0.0695 0.49581,0.0952 1.65893,0.56585 1.6584,0.67108 -1.7e-4,0.028 -0.31447,0.0612 -0.6985,0.0738 -0.67963,0.0222 -1.54515,0.19071 -1.82817,0.35593 -0.0985,0.0575 0.0632,0.0825 0.54488,0.0844 1.17671,0.004 2.55759,0.46952 3.60435,1.214 l 0.39463,0.28067 -0.9873,-6.7e-4 c -1.03784,-7.6e-4 -1.69095,0.12141 -3.22525,0.6032 l -0.72539,0.22778 1.016,0.10792 c 1.49819,0.15913 3.35958,0.7401 5.60586,1.74968 1.13139,0.5085 2.94802,1.52093 3.76947,2.10078 l 0.23133,0.16329 -0.54883,0.64322 c -0.30185,0.35376 -0.54883,0.6718 -0.54883,0.70676 0,0.0349 0.64782,0.87006 1.4396,1.85581 l 1.43961,1.79227 -0.4715,0.7901 -0.4715,0.79011 0.22031,0.43476 c 0.2497,0.49276 0.43454,0.59516 1.08749,0.60248 l 0.43899,0.005 0.57255,1.20158 c 0.3149,0.66087 0.72267,1.53173 0.90614,1.93524 l 0.3336,0.73366 0.56273,0.0603 c 1.03879,0.11124 2.6935,-0.007 4.14432,-0.29532 3.06196,-0.6092 4.50421,-1.08511 6.85128,-2.26077 1.39721,-0.69987 1.88254,-1.02401 2.70661,-1.80769 0.38688,-0.36791 0.64669,-0.5639 0.6175,-0.46581 -0.0277,0.0931 -0.16578,0.58843 -0.3068,1.10066 -0.67847,2.46447 -1.54753,3.99689 -3.30613,5.8297 -1.29626,1.35097 -3.36208,2.90516 -5.02431,3.77997 -0.30968,0.16298 -0.56338,0.31957 -0.56377,0.34797 -4.3e-4,0.0284 0.25058,0.35224 0.55772,0.71966 2.71866,3.25221 3.96905,6.89584 3.81755,11.12437 -0.15579,4.34826 -1.82428,8.22637 -4.7055,10.93704 -1.73396,1.63133 -3.9861,2.86363 -5.23352,2.86363 -0.36005,0 -0.42061,0.0376 -1.12478,0.6985 -0.40933,0.38417 -0.95474,0.82501 -1.21202,0.97964 -1.36036,0.81759 -3.13821,0.98776 -4.51624,0.43228 l -0.43573,-0.17564 -0.53793,0.39619 c -0.7143,0.5261 -1.06171,0.69551 -1.82833,0.89158 -0.75468,0.19301 -1.86116,0.207 -2.58043,0.0326 z m 2.06896,-5.49885 c 0.39708,-1.02447 0.76903,-2.00905 0.82655,-2.18796 0.0575,-0.17891 0.13376,-0.29321 0.16942,-0.254 0.17643,0.19405 1.53335,2.94823 1.61785,3.2838 0.0534,0.21221 0.12542,0.38583 0.15998,0.38583 0.12047,0 0.67766,-1.34789 1.14236,-2.76347 0.25742,-0.78416 0.46804,-1.47378 0.46804,-1.53248 0,-0.0587 0.0329,-0.10672 0.0731,-0.10672 0.0951,0 0.35375,1.30748 0.40963,2.07099 0.024,0.3278 0.005,0.80556 -0.0427,1.06168 -0.0475,0.25611 -0.0734,0.47879 -0.0576,0.49483 0.11918,0.12097 1.22447,-2.026 2.0798,-4.0399 0.40288,-0.94861 0.75241,-1.69156 0.77672,-1.651 0.0243,0.0405 0.11493,0.37853 0.20135,0.75107 0.20418,0.88008 0.2102,2.92643 0.0104,3.53483 -0.0726,0.22119 -0.10322,0.40217 -0.068,0.40217 0.29189,0 2.58923,-4.27929 3.22013,-5.99818 0.13582,-0.37006 0.21804,-0.49987 0.26427,-0.41726 0.13855,0.24759 0.27364,2.29166 0.1851,2.80087 -0.047,0.27047 -0.0542,0.4605 -0.016,0.42229 0.13042,-0.13042 0.82012,-1.86069 1.1609,-2.91238 0.73018,-2.25347 1.19093,-4.32929 1.4545,-6.55301 0.0497,-0.4191 0.11325,-0.89535 0.14129,-1.05833 0.0927,-0.53909 -0.0529,-0.21041 -0.3058,0.69032 -0.35639,1.26923 -1.22418,3.76431 -1.41867,4.07901 -0.0249,0.0402 -0.14134,-0.21723 -0.2588,-0.57218 -0.11747,-0.35494 -0.23139,-0.62754 -0.25316,-0.60578 -0.0218,0.0218 -0.14407,0.33704 -0.27178,0.7006 -0.12772,0.36357 -0.39663,0.98488 -0.59758,1.38069 l -0.36537,0.71967 -0.15039,-1.143 c -0.15475,-1.17611 -0.3662,-2.35114 -0.43557,-2.42051 -0.0216,-0.0216 -0.066,0.25699 -0.0987,0.61911 -0.0963,1.06782 -0.51274,2.9995 -0.86286,4.00273 -0.0248,0.0711 -0.16419,-0.19136 -0.31681,-0.59667 -0.31322,-0.83183 -0.72113,-1.57009 -0.80942,-1.46492 -0.0332,0.0396 -0.12851,0.30053 -0.21179,0.57993 -0.16181,0.54286 -0.98654,2.60579 -1.02531,2.56463 -0.0127,-0.0136 -0.15887,-0.38786 -0.32469,-0.83181 -0.16583,-0.44395 -0.43712,-1.09165 -0.60287,-1.43934 l -0.30136,-0.63215 0.0354,0.75294 c 0.0195,0.41412 0.003,1.13802 -0.0373,1.60867 -0.0898,1.05745 -0.34118,2.53691 -0.41571,2.44663 -0.0304,-0.0368 -0.18219,-0.40981 -0.33736,-0.82891 -0.15517,-0.4191 -0.47112,-1.16205 -0.70211,-1.651 l -0.41997,-0.889 -0.24104,0.9645 c -0.22295,0.89213 -0.78279,2.50169 -0.92501,2.65945 -0.0337,0.0374 -0.33463,-0.68653 -0.66876,-1.60867 -0.33414,-0.92213 -0.63686,-1.74826 -0.67271,-1.83584 -0.0494,-0.12066 -0.1431,0.0537 -0.38678,0.71967 -0.35259,0.96361 -1.54174,3.46123 -1.64795,3.46123 -0.0982,0 -1.31884,-2.55199 -1.61989,-3.38667 -0.14277,-0.39582 -0.28069,-0.77682 -0.30649,-0.84667 -0.0376,-0.1019 -0.81222,1.8932 -1.24086,3.19617 -0.0498,0.15134 -0.1158,0.27517 -0.14669,0.27517 -0.0673,0 -0.6846,-1.94406 -0.94698,-2.98217 -0.10267,-0.40618 -0.20116,-0.724 -0.21889,-0.70628 -0.046,0.046 -0.92877,2.1823 -1.18391,2.86504 -0.11789,0.31547 -0.23095,0.557 -0.25123,0.53671 -0.0726,-0.0726 -0.44952,-2.3937 -0.49648,-3.05764 -0.0263,-0.37253 -0.0135,-0.91365 0.0285,-1.20249 0.042,-0.28884 0.0525,-0.51041 0.0234,-0.49237 -0.0292,0.0181 -0.31619,0.68306 -0.63777,1.47781 l -0.58469,1.445 -0.48209,-1.33364 C 22.87426,52.92275 22.60183,52.19466 22.534,52.03827 l -0.12332,-0.28435 -0.42644,0.79235 c -0.23455,0.43579 -0.47614,0.95911 -0.53688,1.16293 l -0.11044,0.37059 -0.15555,-0.45525 c -0.27878,-0.81593 -0.47664,-1.70287 -0.65821,-2.95053 -0.0981,-0.6739 -0.1888,-1.23577 -0.20162,-1.24858 -0.0552,-0.0552 -0.33248,1.45496 -0.44554,2.42654 -0.0677,0.58177 -0.13464,1.06934 -0.14878,1.08347 -0.0309,0.0309 -0.53073,-1.16699 -0.9255,-2.21792 l -0.28489,-0.75841 -0.18375,0.50441 c -0.10106,0.27744 -0.21421,0.578 -0.25146,0.66792 -0.053,0.12809 -0.14249,-0.0278 -0.41292,-0.71966 -0.59258,-1.516 -1.00848,-2.79568 -1.24651,-3.83533 -0.11088,-0.4843 -0.13608,-0.14212 -0.0467,0.63396 0.17517,1.52076 0.42961,2.67716 1.22728,5.57787 0.46458,1.68944 0.89542,3.00163 1.24317,3.78629 l 0.19587,0.44196 0.007,-1.37329 c 0.004,-0.75531 0.0474,-1.4876 0.0962,-1.6273 0.0884,-0.2526 0.0907,-0.25005 0.41405,0.46567 0.58427,1.29309 1.77854,3.66998 2.1483,4.27567 0.35048,0.57408 1.01184,1.43042 1.06426,1.378 0.0142,-0.0142 -0.0497,-0.29192 -0.14193,-0.61722 -0.13915,-0.49077 -0.16249,-0.78602 -0.1371,-1.73445 0.0293,-1.09558 0.26727,-2.47054 0.39969,-2.30964 0.0299,0.0363 0.18082,0.40887 0.33546,0.82797 0.37486,1.01596 1.15954,2.66708 1.80661,3.80147 l 0.52638,0.9228 0.0539,-1.3038 c 0.0406,-0.9829 0.0952,-1.41841 0.22188,-1.76947 l 0.16802,-0.46566 0.19335,0.635 c 0.25801,0.84736 1.03075,2.97521 1.291,3.55498 l 0.20858,0.46465 0.0626,-0.29532 c 0.10718,-0.50607 0.7248,-1.94992 1.22074,-2.85381 0.26107,-0.47584 0.49374,-0.86591 0.51702,-0.86681 0.0487,-0.002 1.05346,2.61934 1.45223,3.78849 0.14754,0.43259 0.29436,0.75644 0.32626,0.71967 0.0319,-0.0368 0.3829,-0.90505 0.77998,-1.92952 z M 17.97195,59.66107 c -1.15069,-1.2142 -2.29961,-2.93544 -2.95789,-4.43133 -0.95693,-2.17454 -1.42249,-5.34737 -1.24965,-8.51627 0.14846,-2.72175 0.6371,-4.75651 1.6908,-7.04075 0.18061,-0.39154 0.31332,-0.72697 0.29489,-0.74539 -0.0184,-0.0184 -0.34274,0.39718 -0.7207,0.92356 -1.22739,1.70933 -2.13706,3.83745 -2.54636,5.95702 -0.64764,3.35378 -0.28847,6.42674 1.08799,9.3087 0.3708,0.77637 1.04096,1.91972 0.89327,1.524 -0.25693,-0.68841 -0.59035,-2.73516 -0.41821,-2.56719 0.0324,0.0316 0.23972,0.47641 0.46072,0.98846 0.65691,1.52202 1.15226,2.28234 2.48962,3.82135 0.62703,0.72157 1.49069,1.52505 1.63929,1.52505 0.0244,0 -0.2743,-0.33624 -0.66377,-0.74721 z m 27.24938,-0.40515 c 1.13333,-1.14196 2.11152,-2.63343 2.85685,-4.35591 0.35514,-0.82073 0.38253,-0.8598 0.38225,-0.5454 -5e-4,0.54704 -0.15334,1.44859 -0.33411,1.9704 l -0.16799,0.48493 0.16932,-0.21166 c 0.29745,-0.37186 1.33234,-2.55681 1.56396,-3.302 0.34013,-1.09429 0.54033,-2.13078 0.64407,-3.33453 0.22994,-2.66826 -0.42563,-5.95846 -1.65945,-8.32853 -0.42084,-0.80838 -1.7233,-2.77193 -1.79268,-2.70256 -0.017,0.017 0.0984,0.31477 0.25649,0.66167 1.01787,2.23356 1.48895,4.184 1.65859,6.86711 0.169,2.67311 -0.19533,5.72134 -0.93405,7.81492 -0.65566,1.85816 -1.98072,3.95881 -3.44034,5.45406 -0.33958,0.34787 -0.61741,0.64497 -0.61741,0.66024 0,0.10427 0.91033,-0.62472 1.4145,-1.13274 z M 32.03132,51.01629 c 0.32973,-0.39251 0.59951,-0.75043 0.59951,-0.79537 0,-0.0686 -0.95391,-2.75136 -1.26974,-3.57098 -0.0933,-0.24222 -0.1274,-0.17156 -0.73464,1.524 -0.35022,0.9779 -0.65583,1.85995 -0.67913,1.96011 -0.0314,0.13491 0.12697,0.3948 0.61104,1.00284 0.54193,0.68072 0.67217,0.80132 0.76342,0.7069 0.0605,-0.0626 0.37981,-0.43499 0.70954,-0.8275 z m -6.76649,-2.97981 c 0.64182,-0.21671 1.52857,-0.74154 2.03193,-1.20262 0.19459,-0.17824 0.34088,-0.33347 0.3251,-0.34496 -0.0158,-0.0115 -0.2573,-0.14616 -0.5367,-0.29929 -0.62603,-0.34309 -1.11203,-0.70395 -2.4854,-1.8454 -2.09574,-1.74183 -2.52148,-2.10757 -3.46481,-2.97649 -0.52519,-0.48376 -0.96861,-0.86476 -0.98539,-0.84667 -0.0168,0.0181 -0.14721,0.39903 -0.28983,0.84652 -0.46274,1.45191 -0.50797,2.74398 -0.13477,3.84972 0.52798,1.5643 1.74884,2.64857 3.38087,3.00262 0.51472,0.11166 1.54403,0.0242 2.159,-0.18343 z m 14.73897,0.0152 c 0.96976,-0.29953 2.00649,-1.17062 2.4666,-2.07251 0.49959,-0.97928 0.69032,-2.27723 0.49742,-3.38497 -0.10257,-0.58897 -0.48758,-1.90804 -0.58844,-2.01597 -0.031,-0.0332 -0.18925,0.062 -0.35164,0.21167 -1.60505,1.47878 -4.40454,3.8595 -5.5323,4.70474 -0.33272,0.24937 -0.82402,0.56425 -1.09178,0.69972 -0.26776,0.13548 -0.48683,0.28215 -0.48683,0.32593 0,0.1496 1.05738,0.941 1.651,1.23569 1.12879,0.56037 2.26303,0.65798 3.43597,0.2957 z m -9.53197,-7.37231 c 4.23771,-0.40961 11.67741,-2.7473 17.6614,-5.54954 1.9104,-0.89462 1.93346,-0.93126 0.2456,-0.39026 -1.32695,0.42532 -2.99864,0.88781 -6.477,1.79193 -1.8161,0.47205 -3.9116,1.02518 -4.65667,1.22917 -1.96676,0.53849 -4.27609,1.11173 -5.24933,1.30305 -2.08469,0.40979 -2.71729,0.4685 -5.08,0.47139 -2.26287,0.003 -3.12781,-0.0668 -4.18187,-0.33633 -0.65562,-0.16765 -0.43818,-0.0228 0.5612,0.37386 2.50439,0.99401 4.75391,1.34092 7.17667,1.10673 z M 29.0325,36.91261 c 3.19658,-0.17997 5.97631,-0.64659 10.62566,-1.78371 5.24912,-1.2838 9.19205,-2.60124 12.17777,-4.06891 1.34343,-0.66039 1.68479,-0.92042 0.59424,-0.45267 -1.0419,0.44689 -2.50921,0.9755 -3.71267,1.33752 -2.13464,0.64214 -12.86581,3.28479 -15.15534,3.73214 -2.10257,0.41083 -5.98142,1.0063 -7.04819,1.08202 -0.412,0.0292 -0.71859,0.0837 -0.68132,0.12094 0.0373,0.0373 0.37244,0.0813 0.74481,0.0978 0.67462,0.0299 0.84918,0.0253 2.45504,-0.0651 z m 5.66446,-2.84737 c 0.25874,-0.11788 0.38937,-0.46679 0.38868,-1.03813 -8.6e-4,-0.72445 -0.33611,-4.1222 -0.42269,-4.28397 -0.16005,-0.29905 -0.54319,-0.33889 -3.2593,-0.33889 -2.54274,0 -2.64702,0.006 -2.79607,0.17109 -0.17344,0.19165 -0.37497,1.03783 -0.37765,1.58574 l -0.002,0.35984 h 0.58219 0.58218 l 0.0382,-0.46054 c 0.0621,-0.74845 -0.007,-0.7248 2.10683,-0.7248 1.79782,0 1.852,0.005 1.94543,0.17957 0.096,0.1794 0.26087,3.40372 0.18458,3.61 -0.0697,0.1886 -0.43687,0.21592 -2.24017,0.16671 -1.18697,-0.0324 -1.80912,-0.0817 -1.89135,-0.14998 -0.0728,-0.0604 -0.12254,-0.25216 -0.12254,-0.47233 V 32.299 h -0.59267 -0.59267 v 0.68289 c 0,0.74099 0.0796,0.97936 0.36537,1.09451 0.28652,0.11545 5.84791,0.10535 6.10343,-0.0111 z m -16.64225,-0.792 c -0.0229,-0.0229 -0.47694,-0.11729 -1.00894,-0.20972 -2.20536,-0.38316 -5.02281,-1.31255 -7.81007,-2.57631 -0.69357,-0.31447 -0.53251,-0.14855 0.38681,0.39849 1.75653,1.0452 4.15047,1.96375 5.99032,2.29849 0.59784,0.10877 2.53214,0.17931 2.44188,0.0891 z m 22.32312,-0.77237 c 1.08609,-0.3388 1.06459,-0.28247 0.51828,-1.35825 C 40.6397,30.6377 40.2016,29.73881 39.92257,29.14508 l -0.50734,-1.0795 h -0.54885 c -0.62104,0 -1.15815,0.19238 -1.67088,0.59847 -0.36457,0.28875 -0.88289,0.9102 -0.81542,0.97768 0.0244,0.0244 0.19768,-0.0339 0.38509,-0.1295 0.29688,-0.15146 1.71621,-0.60557 1.8653,-0.5968 0.0297,0.002 -0.0984,0.13525 -0.28464,0.29667 l -0.33867,0.2935 0.61384,-0.0548 c 0.3376,-0.0302 0.61383,-0.0238 0.61383,0.0142 0,0.0379 -0.0667,0.14513 -0.14817,0.23818 -0.14246,0.16268 -0.14164,0.16659 0.0212,0.10162 0.0931,-0.0372 0.26172,-0.0874 0.37464,-0.11173 l 0.20531,-0.0441 -0.17847,0.24553 c -0.0982,0.13504 -0.42867,0.52766 -0.73447,0.87249 -0.30581,0.34482 -0.55601,0.65535 -0.55601,0.69006 0,0.0952 1.13855,-0.2172 1.5244,-0.41832 0.18605,-0.097 0.33781,-0.14835 0.33725,-0.11417 -6e-4,0.0342 -0.0958,0.22796 -0.21167,0.43062 -0.11586,0.20266 -0.21065,0.38363 -0.21065,0.40216 0,0.0185 0.10294,0.0337 0.22876,0.0337 0.18702,0 0.0775,0.10042 -0.60011,0.55033 -0.45588,0.30268 -0.86362,0.55033 -0.90609,0.55033 -0.0425,0 -0.0772,0.0314 -0.0772,0.0697 0,0.0841 1.1399,-0.16891 2.07433,-0.46039 z m -17.907,0.4473 c 0,-0.0154 -0.18097,-0.14588 -0.40217,-0.28987 -0.22119,-0.14399 -0.53551,-0.4028 -0.6985,-0.57513 l -0.29633,-0.31333 0.40217,0.0425 c 0.22119,0.0234 0.40216,0.0266 0.40216,0.007 0,-0.0195 -0.0772,-0.13986 -0.17167,-0.26757 -0.0944,-0.12771 -0.19432,-0.37173 -0.22199,-0.54226 l -0.0503,-0.31006 0.66126,0.3322 c 0.36369,0.18271 0.67774,0.31571 0.69789,0.29557 0.0202,-0.0202 -0.19657,-0.29503 -0.4816,-0.61084 -0.28503,-0.31581 -0.51824,-0.6033 -0.51824,-0.63887 0,-0.0927 0.3727,-0.0797 0.64123,0.0224 0.29678,0.11283 0.34815,0.0529 0.14316,-0.16718 -0.0902,-0.0968 -0.20545,-0.31116 -0.25615,-0.47636 -0.0761,-0.24804 -0.07,-0.30887 0.0351,-0.34922 0.13082,-0.0502 1.00685,0.017 1.38396,0.1061 0.11642,0.0275 -0.0655,-0.11351 -0.40419,-0.31339 -0.56194,-0.33159 -0.59901,-0.36987 -0.42334,-0.43718 0.10589,-0.0406 0.72593,-0.0769 1.37787,-0.0807 1.13705,-0.007 1.16981,-0.0117 0.80433,-0.12277 -0.53494,-0.16255 -2.28513,-0.30529 -2.6342,-0.21484 -0.27318,0.0708 -0.32496,0.15702 -1.23606,2.05838 -0.52302,1.09148 -0.95202,2.02574 -0.95334,2.07613 -0.001,0.0504 0.12143,0.13338 0.27277,0.1844 0.15134,0.051 0.59901,0.2093 0.99483,0.35173 0.66178,0.23815 0.93133,0.30563 0.93133,0.23317 z m 9.017,-1.40437 0.42333,-0.0598 -0.762,-0.12171 c -0.87686,-0.14005 -4.52457,-0.15545 -5.08,-0.0214 -0.31414,0.0758 -0.26817,0.089 0.635,0.18267 0.53552,0.0555 1.20227,0.11158 1.48167,0.12455 0.71294,0.0331 2.79507,-0.0326 3.302,-0.10427 z m 6.2732,-4.93953 c 0.17507,-0.17507 -1.7793,-2.18803 -2.47656,-2.55082 l -0.40997,-0.21332 0.33866,-0.003 c 0.18627,-0.002 0.75505,0.0913 1.26396,0.20671 0.50891,0.11543 0.93354,0.20081 0.94361,0.18973 0.0101,-0.0111 -0.38726,-0.5772 -0.88296,-1.25805 -0.8491,-1.16624 -1.70773,-2.21186 -2.58963,-3.1536 -0.21229,-0.22669 -0.38598,-0.42278 -0.38598,-0.43575 0,-0.013 0.32597,-0.0699 0.72437,-0.12642 0.3984,-0.0565 0.70874,-0.11844 0.68965,-0.13753 -0.0752,-0.0753 -1.50041,-0.2888 -2.26588,-0.33952 -0.44948,-0.0298 -1.31556,-0.008 -1.94733,0.0499 -1.14485,0.10423 -2.93956,0.38097 -3.02506,0.46647 -0.0253,0.0253 0.40806,0.0462 0.96297,0.0465 2.23663,0.001 4.32525,0.59021 5.36928,1.51443 l 0.381,0.33727 -0.55033,-0.17231 c -0.43542,-0.13633 -0.80667,-0.17501 -1.778,-0.18527 -1.07496,-0.0113 -2.43625,0.0786 -2.35616,0.15574 0.0153,0.0147 0.48503,0.1052 1.04383,0.20105 1.21806,0.20891 2.10817,0.48822 3.13266,0.983 0.67359,0.32531 1.71797,1.08845 1.27,0.928 -0.26557,-0.0951 -2.08957,-0.14894 -2.72649,-0.0804 l -0.57551,0.0619 0.46567,0.14621 c 0.87269,0.27403 1.85373,0.84787 2.8651,1.67588 0.20674,0.16926 0.092,0.1808 -0.52502,0.0528 -0.36766,-0.0763 -0.95664,-0.11179 -1.60436,-0.0968 l -1.02344,0.0237 1.05402,0.35066 c 0.57972,0.19285 1.22548,0.44957 1.43503,0.57048 l 0.381,0.21982 -1.18533,0.001 c -1.0589,10e-4 -2.60723,0.1667 -2.73262,0.29209 -0.026,0.026 0.31151,0.0494 0.75001,0.052 0.4385,0.003 1.36878,0.0766 2.06728,0.16444 1.20864,0.15196 3.77213,0.19322 3.90253,0.0628 z M 16.65798,13.49181 c 0.16394,-0.25384 0.30271,-1.26073 0.17311,-1.25615 -0.13885,0.005 -0.36957,0.40493 -0.59352,1.02909 -0.12221,0.34058 -0.29372,0.7606 -0.38113,0.93337 -0.0874,0.17277 -0.15894,0.33882 -0.15894,0.36899 0,0.0792 0.7757,-0.7892 0.96048,-1.0753 z m 5.9674,-2.95185 c 0.2123,-0.25628 0.59655,-0.68504 0.8539,-0.9528 0.25736,-0.26776 0.44139,-0.48683 0.40898,-0.48683 -0.19997,0 -1.82137,0.99083 -1.9183,1.17226 -0.10335,0.19344 -0.68446,1.87236 -0.68446,1.9775 0,0.0469 0.21462,-0.21377 0.47694,-0.57939 0.26232,-0.36562 0.65064,-0.87445 0.86294,-1.13074 z"
   id="path444"
   sodipodi:nodetypes="cssccssscccsscccscccccccccscccsscscccccssccccccccccccccccscccccscscccsccccccscccccccccccccsccsssscccccccccccsccscccccscsccsccsscssccccsccsccccssscssccsssssscssccccccsssssccscccsssccccccccssscssccscscssccccsscsccssssccsscsccsssccsccscsccscsccccscsscccccssccssccccssccscscccsscsccssscsssscssscssssscsssscsscscssscsscsscscscsssccssssscssscccsscccssscccsccccssccccccsccccscccsscccsscscccsccssscccccsccccccscccssssscccscccscccscssccccccccccscccccccsccsccccccccsssccccscscscccsccccscccccccsccccccccscccssssc"
   inkscape:export-filename="./path444.svg"
   inkscape:export-xdpi="185.1889"
   inkscape:export-ydpi="185.1889" /></g></svg>
